<svg width="186" height="29" viewBox="0 0 186 29" fill="none" xmlns="http://www.w3.org/2000/svg">
<path d="M16.732 11.808C16.732 15.1867 15.808 17.7347 13.96 19.452C12.1307 21.1507 9.57333 22 6.288 22H0.716V2.008H6.876C8.892 2.008 10.6373 2.38133 12.112 3.128C13.5867 3.87467 14.7253 4.976 15.528 6.432C16.3307 7.86933 16.732 9.66133 16.732 11.808ZM14.072 11.892C14.072 9.22267 13.4093 7.272 12.084 6.04C10.7773 4.78933 8.92 4.164 6.512 4.164H3.236V19.844H5.952C11.3653 19.844 14.072 17.1933 14.072 11.892ZM27.8331 6.712C28.1131 6.712 28.4118 6.73067 28.7291 6.768C29.0651 6.78667 29.3545 6.824 29.5971 6.88L29.2891 9.148C29.0465 9.092 28.7758 9.04533 28.4771 9.008C28.1971 8.97067 27.9265 8.952 27.6651 8.952C26.8998 8.952 26.1811 9.16667 25.5091 9.596C24.8371 10.0067 24.2958 10.5947 23.8851 11.36C23.4931 12.1067 23.2971 12.984 23.2971 13.992V22H20.8331V6.992H22.8491L23.1291 9.736H23.2411C23.7265 8.91467 24.3518 8.20533 25.1171 7.608C25.8825 7.01067 26.7878 6.712 27.8331 6.712ZM30.0475 6.992H32.6795L35.9275 15.532C36.2075 16.2787 36.4595 16.9973 36.6835 17.688C36.9075 18.36 37.0755 19.004 37.1875 19.62H37.2995C37.4115 19.1533 37.5889 18.5467 37.8315 17.8C38.0742 17.0347 38.3262 16.2693 38.5875 15.504L41.6395 6.992H44.2995L37.8315 24.072C37.3089 25.4907 36.6275 26.62 35.7875 27.46C34.9662 28.3 33.8275 28.72 32.3715 28.72C31.9235 28.72 31.5315 28.692 31.1955 28.636C30.8595 28.5987 30.5702 28.552 30.3275 28.496V26.536C30.5329 26.5733 30.7755 26.6107 31.0555 26.648C31.3542 26.6853 31.6622 26.704 31.9795 26.704C32.8382 26.704 33.5289 26.4613 34.0515 25.976C34.5929 25.4907 35.0129 24.8467 35.3115 24.044L36.0955 22.056L30.0475 6.992ZM53.2204 22H50.7004V2.008H61.8724V4.22H53.2204V11.304H61.3404V13.516H53.2204V22ZM67.3479 22H64.8839V0.719999H67.3479V22ZM85.1507 14.468C85.1507 16.9507 84.516 18.8733 83.2467 20.236C81.996 21.5987 80.2973 22.28 78.1507 22.28C76.8253 22.28 75.64 21.9813 74.5947 21.384C73.568 20.768 72.756 19.8813 72.1587 18.724C71.5613 17.548 71.2627 16.1293 71.2627 14.468C71.2627 11.9853 71.888 10.072 73.1387 8.728C74.3893 7.384 76.088 6.712 78.2347 6.712C79.5973 6.712 80.792 7.02 81.8187 7.636C82.864 8.23333 83.676 9.11067 84.2547 10.268C84.852 11.4067 85.1507 12.8067 85.1507 14.468ZM73.8107 14.468C73.8107 16.2413 74.156 17.6507 74.8467 18.696C75.556 19.7227 76.676 20.236 78.2067 20.236C79.7187 20.236 80.8293 19.7227 81.5387 18.696C82.248 17.6507 82.6027 16.2413 82.6027 14.468C82.6027 12.6947 82.248 11.304 81.5387 10.296C80.8293 9.288 79.7093 8.784 78.1787 8.784C76.648 8.784 75.5373 9.288 74.8467 10.296C74.156 11.304 73.8107 12.6947 73.8107 14.468ZM98.1969 13.516C97.9542 12.7507 97.7396 12.004 97.5529 11.276C97.3849 10.5293 97.2542 9.95067 97.1609 9.54H97.0489C96.9742 9.95067 96.8529 10.5293 96.6849 11.276C96.5169 12.004 96.3022 12.76 96.0409 13.544L93.3529 21.972H90.5529L86.4369 6.964H88.9849L91.0569 14.972C91.2622 15.7747 91.4582 16.5867 91.6449 17.408C91.8316 18.2293 91.9622 18.9107 92.0369 19.452H92.1489C92.2236 19.1347 92.3076 18.7427 92.4009 18.276C92.5129 17.8093 92.6342 17.324 92.7649 16.82C92.8956 16.2973 93.0262 15.8307 93.1569 15.42L95.8169 6.964H98.5049L101.081 15.42C101.286 16.0547 101.482 16.7453 101.669 17.492C101.874 18.2387 102.014 18.8827 102.089 19.424H102.201C102.257 18.9573 102.378 18.3133 102.565 17.492C102.77 16.6707 102.985 15.8307 103.209 14.972L105.309 6.964H107.829L103.657 21.972H100.773L98.1969 13.516ZM116.317 6.712C117.605 6.712 118.706 6.992 119.621 7.552C120.554 8.112 121.263 8.90533 121.749 9.932C122.253 10.94 122.505 12.1253 122.505 13.488V14.972H112.229C112.266 16.6707 112.695 17.968 113.517 18.864C114.357 19.7413 115.523 20.18 117.017 20.18C117.969 20.18 118.809 20.096 119.537 19.928C120.283 19.7413 121.049 19.48 121.833 19.144V21.3C121.067 21.636 120.311 21.8787 119.565 22.028C118.818 22.196 117.931 22.28 116.905 22.28C115.486 22.28 114.226 21.9907 113.125 21.412C112.042 20.8333 111.193 19.9747 110.577 18.836C109.979 17.6787 109.681 16.2693 109.681 14.608C109.681 12.9653 109.951 11.556 110.493 10.38C111.053 9.204 111.827 8.29867 112.817 7.664C113.825 7.02933 114.991 6.712 116.317 6.712ZM116.289 8.728C115.113 8.728 114.179 9.11067 113.489 9.876C112.817 10.6227 112.415 11.668 112.285 13.012H119.929C119.91 11.7427 119.611 10.716 119.033 9.932C118.454 9.12933 117.539 8.728 116.289 8.728ZM133.325 6.712C133.605 6.712 133.904 6.73067 134.221 6.768C134.557 6.78667 134.847 6.824 135.089 6.88L134.781 9.148C134.539 9.092 134.268 9.04533 133.969 9.008C133.689 8.97067 133.419 8.952 133.157 8.952C132.392 8.952 131.673 9.16667 131.001 9.596C130.329 10.0067 129.788 10.5947 129.377 11.36C128.985 12.1067 128.789 12.984 128.789 13.992V22H126.325V6.992H128.341L128.621 9.736H128.733C129.219 8.91467 129.844 8.20533 130.609 7.608C131.375 7.01067 132.28 6.712 133.325 6.712ZM141.919 22V2.008H144.439V19.76H153.175V22H141.919ZM157.527 1.364C157.9 1.364 158.227 1.49467 158.507 1.756C158.805 1.99867 158.955 2.39067 158.955 2.932C158.955 3.45467 158.805 3.84667 158.507 4.108C158.227 4.36933 157.9 4.5 157.527 4.5C157.116 4.5 156.771 4.36933 156.491 4.108C156.211 3.84667 156.071 3.45467 156.071 2.932C156.071 2.39067 156.211 1.99867 156.491 1.756C156.771 1.49467 157.116 1.364 157.527 1.364ZM158.731 6.992V22H156.267V6.992H158.731ZM170.401 8.896H166.621V22H164.157V8.896H161.525V7.748L164.157 6.908V6.04C164.157 4.09867 164.587 2.708 165.445 1.868C166.304 1.00933 167.499 0.579999 169.029 0.579999C169.627 0.579999 170.168 0.635999 170.653 0.747998C171.157 0.841333 171.587 0.953333 171.941 1.084L171.297 3.016C170.999 2.92267 170.653 2.82933 170.261 2.736C169.869 2.64267 169.468 2.596 169.057 2.596C168.236 2.596 167.62 2.876 167.209 3.436C166.817 3.97733 166.621 4.836 166.621 6.012V6.992H170.401V8.896ZM178.906 6.712C180.194 6.712 181.296 6.992 182.21 7.552C183.144 8.112 183.853 8.90533 184.338 9.932C184.842 10.94 185.094 12.1253 185.094 13.488V14.972H174.818C174.856 16.6707 175.285 17.968 176.106 18.864C176.946 19.7413 178.113 20.18 179.606 20.18C180.558 20.18 181.398 20.096 182.126 19.928C182.873 19.7413 183.638 19.48 184.422 19.144V21.3C183.657 21.636 182.901 21.8787 182.154 22.028C181.408 22.196 180.521 22.28 179.494 22.28C178.076 22.28 176.816 21.9907 175.714 21.412C174.632 20.8333 173.782 19.9747 173.166 18.836C172.569 17.6787 172.27 16.2693 172.27 14.608C172.27 12.9653 172.541 11.556 173.082 10.38C173.642 9.204 174.417 8.29867 175.406 7.664C176.414 7.02933 177.581 6.712 178.906 6.712ZM178.878 8.728C177.702 8.728 176.769 9.11067 176.078 9.876C175.406 10.6227 175.005 11.668 174.874 13.012H182.518C182.5 11.7427 182.201 10.716 181.622 9.932C181.044 9.12933 180.129 8.728 178.878 8.728Z" fill="#20E086"/>
</svg>
